<svg width="32" height="32" viewBox="0 0 32 32" fill="none" xmlns="http://www.w3.org/2000/svg">
<g clip-path="url(#clip0)">
<path d="M18 5.57333C17.632 5.57333 17.3333 5.27467 17.3333 4.90667V2.66667C17.3333 1.932 16.7346 1.33333 16 1.33333C15.2653 1.33333 14.6666 1.932 14.6666 2.66667V4.90667C14.6666 5.27467 14.368 5.57333 14 5.57333C13.632 5.57333 13.3333 5.276 13.3333 4.90667V2.66667C13.3333 1.196 14.5293 0 16 0C17.4706 0 18.6666 1.196 18.6666 2.66667V4.90667C18.6666 5.276 18.368 5.57333 18 5.57333Z" fill="white"/>
<path d="M16 32C13.4266 32 11.3333 29.9067 11.3333 27.3333C11.3333 26.9653 11.632 26.6667 12 26.6667C12.368 26.6667 12.6666 26.9653 12.6666 27.3333C12.6666 29.1707 14.1626 30.6667 16 30.6667C17.8373 30.6667 19.3333 29.1707 19.3333 27.3333C19.3333 26.9653 19.632 26.6667 20 26.6667C20.368 26.6667 20.6666 26.9653 20.6666 27.3333C20.6666 29.9067 18.5733 32 16 32Z" fill="white"/>
<path d="M27.3334 28H4.66669C3.56402 28 2.66669 27.1027 2.66669 26C2.66669 25.4147 2.92135 24.8613 3.36669 24.48C5.46802 22.704 6.66669 20.12 6.66669 17.384V13.3333C6.66669 8.18667 10.8534 4 16 4C21.1467 4 25.3334 8.18667 25.3334 13.3333V17.384C25.3334 20.1213 26.532 22.704 28.6227 24.4707C29.0787 24.8613 29.3334 25.4147 29.3334 26C29.3334 27.1027 28.4374 28 27.3334 28ZM16 5.33333C11.588 5.33333 8.00002 8.92133 8.00002 13.3333V17.384C8.00002 20.5147 6.62935 23.468 4.23869 25.4893C4.08535 25.62 4.00002 25.8053 4.00002 26C4.00002 26.368 4.29869 26.6667 4.66669 26.6667H27.3334C27.7014 26.6667 28 26.368 28 26C28 25.8053 27.9147 25.62 27.7667 25.4933C25.372 23.468 24 20.5133 24 17.384V13.3333C24 8.92133 20.412 5.33333 16 5.33333Z" fill="white"/>
</g>
<defs>
<clipPath id="clip0">
<rect width="32" height="32" fill="white"/>
</clipPath>
</defs>
</svg>
