<svg width="32" height="28" viewBox="0 0 32 28" fill="none" xmlns="http://www.w3.org/2000/svg">
<path d="M21.5652 10.9565C21.9492 10.9565 22.2609 10.6838 22.2609 10.3478V3.04346C22.2608 1.36591 20.7012 0 18.7826 0H3.47824C1.55967 0 0 1.36591 0 3.04346V24.9565C0 26.634 1.55967 27.9999 3.47824 27.9999H18.7826C20.7012 27.9999 22.2608 26.634 22.2608 24.9565V17.6521C22.2608 17.3161 21.9492 17.0434 21.5652 17.0434C21.1812 17.0434 20.8696 17.3161 20.8696 17.6521V24.9565C20.8696 25.9633 19.9332 26.7826 18.7826 26.7826H3.47824C2.32761 26.7826 1.39128 25.9633 1.39128 24.9565V3.04346C1.39128 2.03666 2.32761 1.21737 3.47824 1.21737H18.7826C19.9332 1.21737 20.8696 2.03666 20.8696 3.04346V10.3478C20.8696 10.6838 21.1812 10.9565 21.5652 10.9565Z" fill="white"/>
<path d="M31.3043 13.3913H9.04351C8.65951 13.3913 8.34784 13.664 8.34784 14C8.34784 14.336 8.65951 14.6087 9.04351 14.6087H31.3043C31.6883 14.6087 32 14.336 32 13.9999C32 13.6639 31.6883 13.3913 31.3043 13.3913Z" fill="white"/>
<path d="M31.7955 13.5715L27.6215 9.91928C27.3502 9.68189 26.9092 9.68189 26.6379 9.91928C26.3666 10.1567 26.3666 10.5426 26.6379 10.78L30.3193 14.0012L26.6379 17.2224C26.3666 17.4598 26.3666 17.8457 26.6379 18.0831C26.7742 18.2012 26.9523 18.2609 27.1304 18.2609C27.3085 18.2609 27.4865 18.2013 27.6215 18.0844L31.7955 14.4322C32.0668 14.1948 32.0668 13.8088 31.7955 13.5715Z" fill="white"/>
</svg>
