<svg width="34" height="32" viewBox="0 0 34 32" fill="none" xmlns="http://www.w3.org/2000/svg">
<path d="M11.2937 26.88H1.78322C0.80007 26.88 0 26.2647 0 25.5086V15.4514C0 14.6953 0.80007 14.08 1.78322 14.08H11.2937C12.2769 14.08 13.0769 14.6953 13.0769 15.4514V25.5086C13.0769 26.2647 12.2769 26.88 11.2937 26.88ZM1.78322 14.9943C1.45629 14.9943 1.18881 15.1991 1.18881 15.4514V25.5086C1.18881 25.7609 1.45629 25.9657 1.78322 25.9657H11.2937C11.6206 25.9657 11.8881 25.7609 11.8881 25.5086V15.4514C11.8881 15.1991 11.6206 14.9943 11.2937 14.9943H1.78322Z" fill="white"/>
<path d="M25.6783 26.88H16.1679C15.1847 26.88 14.3846 26.2647 14.3846 25.5086V15.4514C14.3846 14.6953 15.1847 14.08 16.1679 14.08H25.6783C26.6615 14.08 27.4616 14.6953 27.4616 15.4514V25.5086C27.4616 26.2647 26.6615 26.88 25.6783 26.88ZM16.1679 14.9943C15.8409 14.9943 15.5735 15.1991 15.5735 15.4514V25.5086C15.5735 25.7609 15.8409 25.9657 16.1679 25.9657H25.6783C26.0053 25.9657 26.2728 25.7609 26.2728 25.5086V15.4514C26.2728 15.1991 26.0053 14.9943 25.6783 14.9943H16.1679Z" fill="white"/>
<path d="M25.6783 12.8H16.1679C15.1847 12.8 14.3846 12.1847 14.3846 11.4286V1.37143C14.3846 0.615314 15.1847 0 16.1679 0H25.6783C26.6615 0 27.4616 0.615314 27.4616 1.37143V11.4286C27.4616 12.1847 26.6615 12.8 25.6783 12.8ZM16.1679 0.914286C15.8409 0.914286 15.5735 1.11909 15.5735 1.37143V11.4286C15.5735 11.6809 15.8409 11.8857 16.1679 11.8857H25.6783C26.0053 11.8857 26.2728 11.6809 26.2728 11.4286V1.37143C26.2728 1.11909 26.0053 0.914286 25.6783 0.914286H16.1679Z" fill="white"/>
<path d="M11.2937 12.8H1.78322C0.80007 12.8 0 12.1847 0 11.4286V1.37143C0 0.615314 0.80007 0 1.78322 0H11.2937C12.2769 0 13.0769 0.615314 13.0769 1.37143V11.4286C13.0769 12.1847 12.2769 12.8 11.2937 12.8ZM1.78322 0.914286C1.45629 0.914286 1.18881 1.11909 1.18881 1.37143V11.4286C1.18881 11.6809 1.45629 11.8857 1.78322 11.8857H11.2937C11.6206 11.8857 11.8881 11.6809 11.8881 11.4286V1.37143C11.8881 1.11909 11.6206 0.914286 11.2937 0.914286H1.78322Z" fill="white"/>
</svg>
