<svg width="28" height="28" viewBox="0 0 28 28" fill="none" xmlns="http://www.w3.org/2000/svg">
<path d="M26.9062 12.9062H15.0938V1.09375C15.0938 0.489672 14.6041 0 14 0C13.3959 0 12.9062 0.489672 12.9062 1.09375V12.9062H1.09375C0.489672 12.9062 0 13.3959 0 14C0 14.6041 0.489672 15.0938 1.09375 15.0938H12.9062V26.9062C12.9062 27.5103 13.3959 28 14 28C14.6041 28 15.0938 27.5103 15.0938 26.9062V15.0938H26.9062C27.5103 15.0938 28 14.6041 28 14C28 13.3959 27.5103 12.9062 26.9062 12.9062Z" fill="white"/>
</svg>
