<svg width="24" height="24" viewBox="0 0 24 24" fill="none" xmlns="http://www.w3.org/2000/svg">
<g clip-path="url(#clip0)">
<path d="M0.8535 23.8535L8.15602 16.551C9.84009 18.0678 12.0605 19 14.5 19C19.7383 19 24 14.7383 24 9.50002C24 4.26173 19.7383 0 14.5 0C9.2617 0 4.99997 4.26173 4.99997 9.50002C4.99997 11.9395 5.93217 14.1599 7.44895 15.844L0.146484 23.1465C0.0488434 23.2441 0 23.3721 0 23.5C0 23.628 0.0488434 23.7559 0.146484 23.8536C0.341812 24.0488 0.658218 24.0488 0.8535 23.8535ZM6 9.50002C6 4.8135 9.813 1.00003 14.5 1.00003C19.187 1.00003 23 4.8135 23 9.50002C23 14.1865 19.187 18 14.5 18C9.81295 18 6 14.1865 6 9.50002Z" fill="#333333"/>
</g>
<defs>
<clipPath id="clip0">
<rect width="24" height="24" fill="white" transform="translate(24) rotate(90)"/>
</clipPath>
</defs>
</svg>
